# xmcd
#
# Track frame offsets: 
#        150
#        20195
#        42508
#        65792
#        92384
#        112318
#        135821
#        154994
#        178008
#        204098
#
# Disc length: 2974 seconds
#
# Revision: 0
# Processed by: cddbd v1.5.2PL0 Copyright (c) Steve Scherf et al.
# Submitted via: ExactAudioCopy v1.0b3
#
DISCID=890b9c0a
DTITLE=Various Artist - Duyen Kiep
DYEAR=1994
DGENRE=
TTITLE0=Giao Linh - Em di tren co non
TTITLE1=Phuong Hong Que - Gao trang trang thanh
TTITLE2=Thanh Lan - Ngoi tua song dao
TTITLE3=Tien Bien - Ke co don (Trong tam mat doi)
TTITLE4=Giao Linh - Duyen kiep
TTITLE5=Tien Bien - Nho nguoi yeu
TTITLE6=Bach Van - Khuc hat an tinh
TTITLE7=Phuong Hong Que - Giot le tinh
TTITLE8=Bach Van - Me toi
TTITLE9=Tien Bien - Dem buon pho thi
EXTD=
EXTT0=
EXTT1=
EXTT2=
EXTT3=
EXTT4=
EXTT5=
EXTT6=
EXTT7=
EXTT8=
EXTT9=
PLAYORDER=
